<?xml version="1.0" encoding="utf-8"?>
<!-- Generator: Adobe Illustrator 25.0.0, SVG Export Plug-In . SVG Version: 6.00 Build 0)  -->
<svg version="1.1" id="Layer_1" xmlns="http://www.w3.org/2000/svg" xmlns:xlink="http://www.w3.org/1999/xlink" x="0px" y="0px"
	 viewBox="0 0 64 64" style="enable-background:new 0 0 64 64;" xml:space="preserve">
<style type="text/css">
	.st0{fill:#FFFFFF;}
	.st1{fill:#D72027;}
	.st2{fill-rule:evenodd;clip-rule:evenodd;fill:#D72027;}
	.st3{fill-rule:evenodd;clip-rule:evenodd;fill:url(#SVGID_1_);}
	.st4{fill-rule:evenodd;clip-rule:evenodd;fill:url(#SVGID_2_);}
	.st5{fill-rule:evenodd;clip-rule:evenodd;fill:#8A1A1B;}
	.st6{fill-rule:evenodd;clip-rule:evenodd;fill:url(#SVGID_3_);}
	.st7{fill-rule:evenodd;clip-rule:evenodd;fill:url(#SVGID_4_);}
	.st8{fill-rule:evenodd;clip-rule:evenodd;fill:url(#SVGID_5_);}
	.st9{fill-rule:evenodd;clip-rule:evenodd;fill:#DE1F26;}
	.st10{fill-rule:evenodd;clip-rule:evenodd;fill:url(#SVGID_6_);}
	.st11{fill-rule:evenodd;clip-rule:evenodd;fill:url(#SVGID_7_);}
	.st12{fill-rule:evenodd;clip-rule:evenodd;fill:url(#SVGID_8_);}
	.st13{fill-rule:evenodd;clip-rule:evenodd;fill:url(#SVGID_9_);}
	.st14{fill-rule:evenodd;clip-rule:evenodd;fill:url(#SVGID_10_);}
	.st15{fill-rule:evenodd;clip-rule:evenodd;fill:url(#SVGID_11_);}
	.st16{fill-rule:evenodd;clip-rule:evenodd;fill:url(#SVGID_12_);}
	.st17{fill-rule:evenodd;clip-rule:evenodd;fill:url(#SVGID_13_);}
	.st18{fill-rule:evenodd;clip-rule:evenodd;fill:url(#SVGID_14_);}
	.st19{fill:url(#SVGID_15_);}
	.st20{fill:url(#SVGID_16_);}
	.st21{fill:url(#SVGID_17_);}
	.st22{fill:url(#SVGID_18_);}
	.st23{fill:url(#SVGID_19_);}
	.st24{fill:url(#SVGID_20_);}
	.st25{fill:url(#SVGID_21_);}
	.st26{fill:url(#SVGID_22_);}
	.st27{fill:url(#SVGID_23_);}
	.st28{fill:url(#SVGID_24_);}
	.st29{fill:url(#SVGID_25_);}
	.st30{fill:url(#SVGID_26_);}
	.st31{fill:url(#SVGID_27_);}
	.st32{fill:url(#SVGID_28_);}
	.st33{fill:none;}
	.st34{fill:url(#SVGID_29_);}
	.st35{fill:url(#SVGID_30_);}
	.st36{fill:url(#SVGID_31_);}
	.st37{fill:url(#SVGID_32_);}
	.st38{fill:url(#SVGID_33_);}
	.st39{fill:url(#SVGID_34_);}
	.st40{fill:url(#SVGID_35_);}
	.st41{fill:url(#SVGID_36_);}
	.st42{fill:url(#SVGID_37_);}
	.st43{fill:url(#SVGID_38_);}
	.st44{fill:#8A1A1B;}
</style>
<circle class="st0" cx="32.1" cy="32.1" r="31.4"/>
<g>
	<g>
		<g>
			<path class="st1" d="M43.3,23.4l3.7-5.6v0v0v-7.4l0,0l-7.4-3.7v0l-7.4,3.7l0,0l0,0l-7.4-3.7v0l-7.4,3.7l0,0v7.4v0v0l3.7,5.6
				 M20.9,23.4l3.7,5.6l0,0l0,0l0,0l0,0l0,0l7.4,3.7l7.4-3.7l0,0l3.7-5.6"/>
			<g>
				<polygon class="st2" points="24.6,21.6 32.1,17.9 24.6,14.1 				"/>
			</g>
			<g>
				<polygon class="st2" points="32.1,17.8 24.6,21.5 32.1,25.3 				"/>
			</g>
			<g>
				<polygon class="st2" points="24.6,14.1 32.1,10.4 24.6,6.7 				"/>
			</g>
			<g>
				<polygon class="st2" points="32.1,10.4 24.6,14.1 32.1,17.9 				"/>
			</g>
			<g>
				<polygon class="st2" points="24.6,29 32.1,25.3 24.6,21.5 				"/>
			</g>
			<g>
				<polygon class="st2" points="32.1,25.3 24.6,29 32.1,32.7 				"/>
			</g>
			<g>
				<polygon class="st2" points="24.6,21.6 24.6,21.6 24.6,21.5 				"/>
			</g>
			<g>
				<polygon class="st2" points="24.6,21.6 17.1,17.9 24.6,14.1 				"/>
			</g>
			<g>
				<polygon class="st2" points="24.6,14.1 17.1,10.4 24.6,6.6 				"/>
			</g>
			<g>
				<polygon class="st2" points="17.1,10.4 24.6,14.1 17.1,17.8 				"/>
			</g>
			<line class="st1" x1="24.6" y1="17.8" x2="24.6" y2="17.8"/>
			<g>
				<polygon class="st2" points="24.6,21.5 20.8,23.4 17.1,17.9 17.1,17.8 				"/>
			</g>
			<g>
				<polygon class="st2" points="24.6,29 20.9,23.4 24.6,21.5 				"/>
			</g>
			<g>
				<polygon class="st2" points="39.5,21.6 32.1,17.9 39.5,14.1 				"/>
			</g>
			<g>
				<polygon class="st2" points="32.1,17.8 39.5,21.5 32.1,25.3 				"/>
			</g>
			<g>
				<polygon class="st2" points="39.5,14.1 32.1,10.4 39.5,6.7 				"/>
			</g>
			<g>
				<polygon class="st2" points="32.1,10.4 39.5,14.1 32.1,17.9 				"/>
			</g>
			<g>
				<polygon class="st2" points="39.5,29 32.1,25.3 39.5,21.5 				"/>
			</g>
			<g>
				<polygon class="st2" points="32.1,25.3 39.5,29 32.1,32.7 				"/>
			</g>
			<g>
				<polygon class="st2" points="39.6,21.6 39.5,21.6 39.5,21.5 				"/>
			</g>
			<g>
				<polygon class="st2" points="39.5,21.6 47,17.9 39.5,14.1 				"/>
			</g>
			<g>
				<polygon class="st2" points="39.5,14.1 47,10.4 39.5,6.6 				"/>
			</g>
			<g>
				<polygon class="st2" points="47,10.4 39.5,14.1 47,17.8 				"/>
			</g>
			<line class="st1" x1="39.5" y1="17.8" x2="39.5" y2="17.8"/>
			<g>
				<polygon class="st2" points="39.5,21.5 43.3,23.4 47,17.9 47,17.8 				"/>
			</g>
			<g>
				<polygon class="st2" points="39.5,29 43.3,23.4 39.5,21.5 				"/>
			</g>
			<g>
				<polygon class="st2" points="24.6,21.6 24.6,21.6 24.6,21.5 				"/>
			</g>
			<line class="st1" x1="24.6" y1="17.8" x2="24.6" y2="17.8"/>
			<g>
				<polygon class="st2" points="39.6,21.6 39.5,21.6 39.5,21.5 				"/>
			</g>
			<line class="st1" x1="39.5" y1="17.8" x2="39.5" y2="17.8"/>
			<g>
				<linearGradient id="SVGID_1_" gradientUnits="userSpaceOnUse" x1="17.474" y1="17.8211" x2="31.9998" y2="17.8211">
					<stop  offset="0" style="stop-color:#DE1F26;stop-opacity:0"/>
					<stop  offset="1" style="stop-color:#8A1A1B"/>
				</linearGradient>
				<polygon class="st3" points="24.6,21.6 32.1,17.9 24.6,14.1 				"/>
			</g>
			<g>
				<linearGradient id="SVGID_2_" gradientUnits="userSpaceOnUse" x1="24.5994" y1="21.5536" x2="32.064" y2="21.5536">
					<stop  offset="0" style="stop-color:#8A1A1B"/>
					<stop  offset="1" style="stop-color:#5A1411"/>
				</linearGradient>
				<polygon class="st4" points="32.1,17.8 24.6,21.5 32.1,25.3 				"/>
			</g>
			<g>
				<polygon class="st5" points="24.6,14.1 32.1,10.4 24.6,6.7 				"/>
			</g>
			<g>
				<linearGradient id="SVGID_3_" gradientUnits="userSpaceOnUse" x1="24.67" y1="14.1248" x2="39.5491" y2="14.1248">
					<stop  offset="0" style="stop-color:#8A1A1B"/>
					<stop  offset="1" style="stop-color:#DE1F26;stop-opacity:0"/>
				</linearGradient>
				<polygon class="st6" points="32.1,10.4 24.6,14.1 32.1,17.9 				"/>
			</g>
			<g>
				<polygon class="st2" points="24.6,29 32.1,25.3 24.6,21.5 				"/>
			</g>
			<g>
				<linearGradient id="SVGID_4_" gradientUnits="userSpaceOnUse" x1="26.7832" y1="31.7645" x2="36.1417" y2="26.2345">
					<stop  offset="0" style="stop-color:#8A1A1B"/>
					<stop  offset="1" style="stop-color:#DE1F26;stop-opacity:0"/>
				</linearGradient>
				<polygon class="st7" points="32.1,25.3 24.6,29 32.1,32.7 				"/>
			</g>
			<g>
				<linearGradient id="SVGID_5_" gradientUnits="userSpaceOnUse" x1="18.3289" y1="14.5987" x2="33.4655" y2="22.7836">
					<stop  offset="0" style="stop-color:#8A1A1B"/>
					<stop  offset="1" style="stop-color:#DE1F26;stop-opacity:0"/>
				</linearGradient>
				<polygon class="st8" points="24.6,21.6 17.1,17.9 24.6,14.1 				"/>
			</g>
			<g>
				<polygon class="st9" points="24.6,14.1 17.1,10.4 24.6,6.6 				"/>
			</g>
			<g>
				<linearGradient id="SVGID_6_" gradientUnits="userSpaceOnUse" x1="29.8141" y1="14.0561" x2="14.961" y2="14.1136">
					<stop  offset="0" style="stop-color:#DE1F26;stop-opacity:0"/>
					<stop  offset="1" style="stop-color:#8A1A1B"/>
				</linearGradient>
				<polygon class="st10" points="17.1,10.4 24.6,14.1 17.1,17.8 				"/>
			</g>
			<g>
				<polygon class="st9" points="24.6,21.5 20.8,23.4 17.1,17.9 17.1,17.8 				"/>
			</g>
			<g>
				<polygon class="st5" points="24.6,29 20.9,23.4 24.6,21.5 				"/>
			</g>
			<g>
				<linearGradient id="SVGID_7_" gradientUnits="userSpaceOnUse" x1="42.3131" y1="20.3523" x2="33.5004" y2="14.4292">
					<stop  offset="0" style="stop-color:#DE1F26;stop-opacity:0"/>
					<stop  offset="1" style="stop-color:#8A1A1B"/>
				</linearGradient>
				<polygon class="st11" points="39.5,21.6 32.1,17.9 39.5,14.1 				"/>
			</g>
			<g>
				<linearGradient id="SVGID_8_" gradientUnits="userSpaceOnUse" x1="28.4043" y1="28.6021" x2="35.5761" y2="19.936">
					<stop  offset="0" style="stop-color:#DE1F26;stop-opacity:0"/>
					<stop  offset="1" style="stop-color:#8A1A1B"/>
				</linearGradient>
				<polygon class="st12" points="32.1,17.8 39.5,21.5 32.1,25.3 				"/>
			</g>
			<g>
				<linearGradient id="SVGID_9_" gradientUnits="userSpaceOnUse" x1="35.0609" y1="7.6155" x2="39.6978" y2="13.4655">
					<stop  offset="0" style="stop-color:#8A1A1B"/>
					<stop  offset="1" style="stop-color:#DE1F26;stop-opacity:0"/>
				</linearGradient>
				<polygon class="st13" points="39.5,14.1 32.1,10.4 39.5,6.7 				"/>
			</g>
			<g>
				<polygon class="st9" points="32.1,10.4 39.5,14.1 32.1,17.9 				"/>
			</g>
			<g>
				<linearGradient id="SVGID_10_" gradientUnits="userSpaceOnUse" x1="35.9043" y1="23.4973" x2="47.9222" y2="32.2182">
					<stop  offset="0" style="stop-color:#8A1A1B"/>
					<stop  offset="1" style="stop-color:#DE1F26;stop-opacity:0"/>
				</linearGradient>
				<polygon class="st14" points="39.5,29 32.1,25.3 39.5,21.5 				"/>
			</g>
			<g>
				<linearGradient id="SVGID_11_" gradientUnits="userSpaceOnUse" x1="36.2081" y1="26.8662" x2="25.0829" y2="33.6456">
					<stop  offset="0" style="stop-color:#8A1A1B"/>
					<stop  offset="1" style="stop-color:#DE1F26;stop-opacity:0"/>
				</linearGradient>
				<polygon class="st15" points="32.1,25.3 39.5,29 32.1,32.7 				"/>
			</g>
			<g>
				<linearGradient id="SVGID_12_" gradientUnits="userSpaceOnUse" x1="42.9748" y1="11.8175" x2="43.3489" y2="22.1309">
					<stop  offset="0" style="stop-color:#DE1F26;stop-opacity:0"/>
					<stop  offset="1" style="stop-color:#8A1A1B"/>
				</linearGradient>
				<polygon class="st16" points="39.5,21.6 47,17.9 39.5,14.1 				"/>
			</g>
			<g>
				<polygon class="st5" points="39.5,14.1 47,10.4 39.5,6.6 				"/>
			</g>
			<g>
				<linearGradient id="SVGID_13_" gradientUnits="userSpaceOnUse" x1="39.8383" y1="14.3057" x2="51.9909" y2="13.9651">
					<stop  offset="0" style="stop-color:#8A1A1B"/>
					<stop  offset="1" style="stop-color:#DE1F26;stop-opacity:0"/>
				</linearGradient>
				<polygon class="st17" points="47,10.4 39.5,14.1 47,17.8 				"/>
			</g>
			<g>
				<polygon class="st5" points="39.5,21.5 43.3,23.4 47,17.9 47,17.8 				"/>
			</g>
			<g>
				<linearGradient id="SVGID_14_" gradientUnits="userSpaceOnUse" x1="37.9114" y1="24.462" x2="42.8368" y2="26.9175">
					<stop  offset="0" style="stop-color:#DE1F26;stop-opacity:0"/>
					<stop  offset="1" style="stop-color:#8A1A1B"/>
				</linearGradient>
				<polygon class="st18" points="39.5,29 43.3,23.4 39.5,21.5 				"/>
			</g>
		</g>
		<g>
			<linearGradient id="SVGID_15_" gradientUnits="userSpaceOnUse" x1="28.7845" y1="36.779" x2="27.1422" y2="37.0557">
				<stop  offset="0" style="stop-color:#DE1F26"/>
				<stop  offset="1" style="stop-color:#8A1A1B"/>
			</linearGradient>
			<path class="st19" d="M28.3,35.7c-0.5,0.1-0.9,0.3-1.1,0.5c-0.1,0.1-0.2,0.3-0.3,0.4c0.4-0.4,1.2-0.2,0.8,0.6
				c-0.1,0.2-0.3,0.4-0.6,0.5c0.1,0.1,0.4,0.2,0.8,0.2c0.1,0,0.4,0,0.6,0C29.1,37,28.8,36.1,28.3,35.7z"/>
			<linearGradient id="SVGID_16_" gradientUnits="userSpaceOnUse" x1="27.7463" y1="37.0227" x2="25.3045" y2="37.4449">
				<stop  offset="0" style="stop-color:#DE1F26"/>
				<stop  offset="1" style="stop-color:#8A1A1B"/>
			</linearGradient>
			<path class="st20" d="M26.8,36.7c0.3-0.4,0.7-0.7,1.4-0.9c-0.3-0.2-0.7-0.2-0.9-0.2c-0.2,0-0.6,0.1-0.9,0.4
				c-0.5,0.4-1,1.2-0.7,2.1c0.3,0.7,1.2,0.9,1.9,0.6c0.3-0.1,0.5-0.4,0.7-0.6C26,38.2,26.8,36.7,26.8,36.7z"/>
			<linearGradient id="SVGID_17_" gradientUnits="userSpaceOnUse" x1="40.7907" y1="40.6757" x2="43.0108" y2="39.9827">
				<stop  offset="9.204111e-02" style="stop-color:#DE1F26"/>
				<stop  offset="1" style="stop-color:#8A1A1B"/>
			</linearGradient>
			<path class="st21" d="M42.6,39.6c-0.2-0.2-0.3-0.4-0.5-0.5c-0.3-0.1-0.5-0.1-0.6-0.1c-0.3,0.1-0.3,0.4-0.3,0.7c0,0,0,0,0,0
				c0.1,0.5,0.1,1.1,0,1.3c-0.3,0.6-1.1,1-1.7,1.1c0.1,0,0.1,0,0.2,0c1-0.1,2.3-0.4,2.9-1.2C43,40.6,42.9,40,42.6,39.6z"/>
			<linearGradient id="SVGID_18_" gradientUnits="userSpaceOnUse" x1="30.0085" y1="41.0662" x2="41.299" y2="41.0662">
				<stop  offset="0.1191" style="stop-color:#DE1F26"/>
				<stop  offset="1" style="stop-color:#8A1A1B"/>
			</linearGradient>
			<path class="st22" d="M41.2,39.8c0,0.3-0.1,0.5-0.4,0.6c-0.3,0.2-0.7,0.3-1.1,0.3c-0.3,0-0.6,0.1-0.8,0.1
				C37.4,41,36,41,34.5,40.9c-1.2-0.1-2.5-0.1-3.7,0.3c-0.3,0.1-0.6,0.3-0.8,0.5c0.2-0.2,0.5-0.2,0.6-0.3c1-0.3,2.3,0.4,4.4,0.8
				c0.3,0,0.5,0,0.8,0c1.1,0,2.1,0.1,3.2,0c0.1,0,0.3,0,0.4,0c0.6-0.2,1.4-0.6,1.7-1.1C41.3,40.9,41.4,40.3,41.2,39.8z"/>
			<linearGradient id="SVGID_19_" gradientUnits="userSpaceOnUse" x1="28.7322" y1="45.2721" x2="32.3934" y2="42.1214">
				<stop  offset="0.1372" style="stop-color:#DE1F26"/>
				<stop  offset="1" style="stop-color:#8A1A1B"/>
			</linearGradient>
			<path class="st23" d="M30.7,41.5c-0.2,0-0.4,0.1-0.6,0.3c-0.4,0.4-0.7,0.9-1,1.3c0,0.1-0.1,0.1-0.1,0.2c-0.2,0.2-0.4,0.4-0.3,0.8
				c0,0.2,0.1,0.4,0.3,0.6c0.1,0.2,0.4,0.2,0.6,0.2c0.2,0,0.4-0.3,0.5-0.5c0.4-0.5,0.8-1.1,1.3-1.5c0.3-0.2,0.5-0.4,0.9-0.5
				c0.9-0.3,2-0.2,3-0.2C33,41.9,31.7,41.2,30.7,41.5z"/>
			<linearGradient id="SVGID_20_" gradientUnits="userSpaceOnUse" x1="43.9501" y1="42.8151" x2="46.0154" y2="41.0329">
				<stop  offset="0" style="stop-color:#DE1F26"/>
				<stop  offset="1" style="stop-color:#8A1A1B"/>
			</linearGradient>
			<path class="st24" d="M44.8,41.1c-0.4,0.4-0.8,0.7-1.2,1.1c-0.3,0.2-0.5,0.5-0.8,0.7c-0.2,0.2-0.5,0.4-0.5,0.7
				c0,0.3,0.3,0.4,0.6,0.4c0.3,0,0.5-0.1,0.6-0.3c0,0,3-2.6,2.9-2.3c0,0,0,0,0,0C46.7,41.1,45.7,40.3,44.8,41.1z"/>
			<linearGradient id="SVGID_21_" gradientUnits="userSpaceOnUse" x1="46.6519" y1="41.7901" x2="48.2964" y2="40.8689">
				<stop  offset="0.1204" style="stop-color:#DE1F26"/>
				<stop  offset="1" style="stop-color:#8A1A1B"/>
			</linearGradient>
			<path class="st25" d="M47.5,39.6c-0.1-0.1-0.2-0.1-0.3-0.1c-0.6,0-1.4,0.7-1.8,1.1c-0.2,0.2-0.4,0.3-0.5,0.5
				c0.9-0.8,1.9,0,1.8,0.5c0,0.2-0.3,0.8-0.3,0.9c-0.1,0.1-0.1,0.3-0.1,0.5c0,0.3,0.1,0.6,0.3,0.8c0.2,0.1,0.4,0.1,0.5,0.1
				c0.2-0.1,0.3-0.2,0.4-0.3c0.1-0.1,0.2-0.5,0.2-0.7c0.4-1,0.7-2.2-0.1-3.1C47.5,39.6,47.5,39.6,47.5,39.6z"/>
			<linearGradient id="SVGID_22_" gradientUnits="userSpaceOnUse" x1="25.1044" y1="40.4459" x2="25.3176" y2="40.4459">
				<stop  offset="0" style="stop-color:#DE1F26"/>
				<stop  offset="1" style="stop-color:#8A1A1B"/>
			</linearGradient>
			<path class="st26" d="M25.1,40.4c0.1,0.1,0.1,0.1,0.2,0.1"/>
			<linearGradient id="SVGID_23_" gradientUnits="userSpaceOnUse" x1="27.297" y1="40.2967" x2="27.0334" y2="41.4654">
				<stop  offset="0.2125" style="stop-color:#DE1F26"/>
				<stop  offset="1" style="stop-color:#8A1A1B"/>
			</linearGradient>
			<path class="st27" d="M29.1,40.6c0,0.5-1.1,0.6-1.9-0.1c-0.4,0-0.6-0.5-1-0.2c-0.3,0.2-0.5,0.5-0.9,0.3c0,0,0,0,0,0
				c0.9,0.6,1.8,1.8,3.1,1.1c0.2-0.1,0.4-0.2,0.5-0.4C29.1,41,29.1,40.8,29.1,40.6z"/>
			<linearGradient id="SVGID_24_" gradientUnits="userSpaceOnUse" x1="28.328" y1="39.9889" x2="28.0351" y2="40.8541">
				<stop  offset="0.1642" style="stop-color:#DE1F26"/>
				<stop  offset="1" style="stop-color:#8A1A1B"/>
			</linearGradient>
			<path class="st28" d="M29.1,40.6c0-0.1-0.1-0.2-0.1-0.2C28.7,40,28.1,39.9,28,40c-0.3,0.1-0.5,0.5-0.8,0.5
				C28,41.1,29.1,41.1,29.1,40.6z"/>
			<linearGradient id="SVGID_25_" gradientUnits="userSpaceOnUse" x1="23.0252" y1="43.7043" x2="24.8474" y2="41.6284">
				<stop  offset="0" style="stop-color:#DE1F26"/>
				<stop  offset="1" style="stop-color:#8A1A1B"/>
			</linearGradient>
			<path class="st29" d="M24.5,41.5c-0.4,0.1-0.7,0.3-0.9,0.5c0,0-0.2,0.3-0.3,0.4c-0.6,0.7-1.3,1.2-1.5,1.3
				c-0.2,0.2-0.7,0.4-0.6,0.8c0.1,0.3,0.3,0.5,0.6,0.6c0.7,0.2,1.2-0.6,1.7-1c0.6-0.6,1.2-1.2,1.7-1.8c0.2-0.2,0.4-0.6,0.8-0.4
				C25.6,41.5,25.1,41.4,24.5,41.5z"/>
			<linearGradient id="SVGID_26_" gradientUnits="userSpaceOnUse" x1="25.7741" y1="41.472" x2="24.8067" y2="40.1185">
				<stop  offset="0" style="stop-color:#DE1F26"/>
				<stop  offset="1" style="stop-color:#8A1A1B"/>
			</linearGradient>
			<path class="st30" d="M25.1,40.4c-0.1-0.1-0.3-0.2-0.4-0.2c-0.3,0-0.5,0.2-0.6,0.4c-0.1,0.2-0.1,0.6-0.1,0.6
				c0,0.3-0.2,0.6-0.4,0.8c0.2-0.2,0.5-0.4,0.9-0.5c0.6-0.2,1,0,1.5,0.3c0.3,0.1,0.5,0.3,0.8,0.3c0.4,0,0.8-0.1,1.2-0.3
				c0.1-0.1,0.2-0.1,0.4-0.2c-1.3,0.7-2.3-0.5-3.1-1.1C25.2,40.5,25.2,40.4,25.1,40.4"/>
			<linearGradient id="SVGID_27_" gradientUnits="userSpaceOnUse" x1="18.4365" y1="36.8194" x2="19.2335" y2="37.3077">
				<stop  offset="0" style="stop-color:#DE1F26"/>
				<stop  offset="1" style="stop-color:#8A1A1B"/>
			</linearGradient>
			<path class="st31" d="M19.9,36.4c-0.3,0.2-0.5,0.4-0.8,0.5c0,0-0.8,0.4-0.9,0.5c-0.1,0.1-0.3,0.2-0.3,0.4
				C18.3,38.2,19.2,37.2,19.9,36.4z"/>
			<linearGradient id="SVGID_28_" gradientUnits="userSpaceOnUse" x1="17.8853" y1="36.7987" x2="21.8647" y2="36.7987">
				<stop  offset="0.2681" style="stop-color:#DE1F26"/>
				<stop  offset="1" style="stop-color:#8A1A1B"/>
			</linearGradient>
			<path class="st32" d="M21.7,35.5c-0.1-0.1-0.3-0.3-0.5-0.3c0,0-0.1,0-0.2,0.1c-0.3,0.1-0.7,0.6-1.1,1.1c-0.8,0.8-1.6,1.8-2,1.4
				c0,0,0,0.1,0,0.1c0,0.3,0.3,0.6,1.3,0.2c0.4-0.2,0.8-0.5,1.2-0.7C21,37.1,22.3,36.4,21.7,35.5z"/>
			<path class="st33" d="M45,37.5"/>
			<linearGradient id="SVGID_29_" gradientUnits="userSpaceOnUse" x1="45.8374" y1="36.2303" x2="46.6375" y2="37.0826">
				<stop  offset="0" style="stop-color:#DE1F26"/>
				<stop  offset="1" style="stop-color:#8A1A1B"/>
			</linearGradient>
			<path class="st34" d="M47.8,35.9c-0.3,0.2-0.6,0.4-0.9,0.5c-0.3,0.1-1.1,0.4-1.4,0.6c-0.1,0-0.2,0.1-0.2,0.1
				c-0.1,0.1-0.2,0.2-0.3,0.3c0,0-0.1,0.2,0,0.3C45.6,37.9,46.9,36.6,47.8,35.9z"/>
			<linearGradient id="SVGID_30_" gradientUnits="userSpaceOnUse" x1="46.838" y1="36.5588" x2="48.2741" y2="37.5162">
				<stop  offset="0" style="stop-color:#DE1F26"/>
				<stop  offset="1" style="stop-color:#8A1A1B"/>
			</linearGradient>
			<path class="st35" d="M49.3,36c0-0.1,0-0.1-0.1-0.2c-0.2-0.5-0.7-0.3-1.1-0.1c-0.1,0.1-0.3,0.1-0.4,0.2c-0.9,0.7-2.1,1.9-2.8,1.8
				c0,0,0,0,0,0.1c0.1,0.1,0.3,0.2,0.4,0.2c0.3,0,0.5,0,0.8,0c0.1,0,0.3-0.1,0.4-0.1c0.7-0.2,2.1-0.9,2.3-0.9
				c0.1-0.1,0.3-0.2,0.4-0.3c0.1-0.1,0.1-0.4,0.1-0.4C49.3,36.2,49.3,36.1,49.3,36z"/>
			<linearGradient id="SVGID_31_" gradientUnits="userSpaceOnUse" x1="44.5143" y1="34.9748" x2="45.4438" y2="35.9367">
				<stop  offset="0" style="stop-color:#DE1F26"/>
				<stop  offset="1" style="stop-color:#8A1A1B"/>
			</linearGradient>
			<path class="st36" d="M46.6,34.4c-0.1,0.1-0.3,0.2-0.4,0.3c-0.4,0.3-0.8,0.6-1.3,0.9c-0.4,0.2-1,0.4-1.3,0.8
				c-0.1,0.1-0.1,0.3,0,0.4C44.2,37,45.6,35.3,46.6,34.4z"/>
			<linearGradient id="SVGID_32_" gradientUnits="userSpaceOnUse" x1="45.7803" y1="35.5017" x2="47.0497" y2="36.1764">
				<stop  offset="0" style="stop-color:#DE1F26"/>
				<stop  offset="1" style="stop-color:#8A1A1B"/>
			</linearGradient>
			<path class="st37" d="M48.1,34.6c-0.1-0.3-0.3-0.6-0.6-0.6c0,0-0.1,0-0.2,0c0,0-0.1,0-0.1,0c-0.1,0.1-0.3,0.2-0.4,0.3
				c-0.1,0-0.1,0.1-0.2,0.1c-1,0.9-2.4,2.6-3,2.4c0,0,0.1,0.1,0.2,0.1c0.2,0.1,0.5,0.1,0.8,0c1-0.2,2-0.9,2.9-1.3
				C47.8,35.4,48.1,35.1,48.1,34.6z"/>
			<linearGradient id="SVGID_33_" gradientUnits="userSpaceOnUse" x1="33.8546" y1="36.9561" x2="34.6954" y2="37.5716">
				<stop  offset="0" style="stop-color:#DE1F26"/>
				<stop  offset="1" style="stop-color:#8A1A1B"/>
			</linearGradient>
			<path class="st38" d="M35.8,36.2c-0.5,0.4-1.1,0.8-1.7,1.1c-0.1,0.1-0.7,0.4-0.8,0.5c-0.2,0.1-0.5,0.4-0.5,0.6
				C33.3,38.9,34.7,37.2,35.8,36.2z"/>
			<linearGradient id="SVGID_34_" gradientUnits="userSpaceOnUse" x1="32.8092" y1="37.1263" x2="37.4377" y2="37.1263">
				<stop  offset="0.3392" style="stop-color:#DE1F26"/>
				<stop  offset="1" style="stop-color:#8A1A1B"/>
			</linearGradient>
			<path class="st39" d="M37.2,35.9c-0.1-0.1-0.2-0.2-0.4-0.2c0,0-0.1,0-0.2,0c-0.1,0-0.1,0-0.2,0c-0.2,0-0.3,0.1-0.4,0.3
				C36,36,35.9,36,35.9,36.1c0,0-0.1,0.1-0.1,0.1c-1,1-2.5,2.7-2.9,2.2c0,0.1,0.1,0.2,0.2,0.2c0.5,0.2,1.2-0.1,1.6-0.2
				c0.6-0.2,1.1-0.5,1.6-0.8c0.5-0.3,1.1-0.5,1.2-1.1C37.5,36.2,37.4,36,37.2,35.9z"/>
			<linearGradient id="SVGID_35_" gradientUnits="userSpaceOnUse" x1="19.8025" y1="39.4788" x2="21.0405" y2="40.0747">
				<stop  offset="0.2329" style="stop-color:#DE1F26"/>
				<stop  offset="1" style="stop-color:#8A1A1B"/>
			</linearGradient>
			<path class="st40" d="M21,39.8c0.2-0.6-0.2-0.8-0.3-0.8c0,0-0.1,0-0.1,0c-0.1,0-0.2,0-0.3,0.1c-0.3,0.1-0.5,0.3-0.3,0.6
				c0.1,0.3,0.5,0.5,0.3,0.8c0,0.1-0.1,0.1-0.2,0.1C20.7,40.4,21,39.9,21,39.8z"/>
			<linearGradient id="SVGID_36_" gradientUnits="userSpaceOnUse" x1="15.38" y1="42.7302" x2="18.1379" y2="42.7883">
				<stop  offset="0.1928" style="stop-color:#DE1F26"/>
				<stop  offset="1" style="stop-color:#8A1A1B"/>
			</linearGradient>
			<path class="st41" d="M18.6,40.6c-0.1,0.1-0.3,0.1-0.4,0.3c-1.2,1.4-1.7,2.2-3.3,3.3c0,0-0.1,0.1-0.1,0.1c0,0.1,0,0.2,0,0.3
				c0.5,0.3,0.9,0.4,1.3,0.2C18.5,43.3,17.6,41.6,18.6,40.6z"/>
			<linearGradient id="SVGID_37_" gradientUnits="userSpaceOnUse" x1="18.2492" y1="40.7665" x2="19.4138" y2="43.0057">
				<stop  offset="0.2051" style="stop-color:#DE1F26"/>
				<stop  offset="1" style="stop-color:#8A1A1B"/>
			</linearGradient>
			<path class="st42" d="M21.4,39.3c-0.1-0.1-0.5-0.2-0.7-0.2c0.1,0,0.5,0.2,0.3,0.8c0,0.1-0.3,0.6-0.8,0.7c-0.1,0-0.2,0-0.3,0
				c-0.3-0.1-0.9-0.2-1.3,0c-1.1,0.9-0.1,2.7-2.4,4.2h0l0,0l0,0c1-0.4,1.9-2,2.8-2.6c0.3-0.2,0.5-0.3,0.9-0.3c0.2,0,0.3,0,0.5-0.1
				c0.2,0,0.3,0,0.5-0.1c0.7-0.2,1.2-0.8,1.2-1.6C22,39.8,21.7,39.4,21.4,39.3z"/>
			<linearGradient id="SVGID_38_" gradientUnits="userSpaceOnUse" x1="45.9514" y1="37.9244" x2="45.9514" y2="37.9244">
				<stop  offset="0" style="stop-color:#DE1F26"/>
				<stop  offset="1" style="stop-color:#8A1A1B"/>
			</linearGradient>
			<path class="st43" d="M46,37.9"/>
		</g>
	</g>
	<g>
		<path class="st44" d="M18.4,49.6c0.3,0,0.4,0.1,0.6,0.4c0,0.1,0,0.2,0,0.3c0,0.2-0.1,0.4-0.2,0.5c-0.3,0.4-0.7,0.6-1.3,0.6
			c-0.3,0-0.5-0.1-0.6-0.3c-0.1-0.1-0.1-0.2-0.1-0.4c0-0.2,0.1-0.4,0.3-0.6C17.5,49.8,17.9,49.6,18.4,49.6z M17.5,50.7
			c0,0,0.1,0.1,0.2,0.1h0.1c0,0,0.1,0,0.1,0c0.3-0.1,0.4-0.2,0.5-0.4c0,0,0-0.1,0-0.1c0-0.1-0.1-0.2-0.3-0.2c-0.1,0-0.2,0.1-0.3,0.1
			c-0.1,0.1-0.2,0.1-0.3,0.2C17.5,50.6,17.5,50.6,17.5,50.7C17.5,50.7,17.5,50.7,17.5,50.7z"/>
		<path class="st44" d="M17.5,53.1c0.2,0,0.3,0.1,0.3,0.1c0.1,0,0.1,0.1,0.1,0.2c0,0,0,0.1,0,0.1c0,0.1-0.1,0.1-0.1,0.1l-0.4,0.2
			c-0.2,0.1-0.3,0.2-0.2,0.2c0,0,0,0,0,0c0,0,0.1,0,0.4,0.1c0.1,0,0.2,0,0.3,0c0.1,0,0.2,0,0.2,0c0,0,0.1,0,0.2,0
			c0.1,0,0.1,0.1,0.1,0.3c0,0.1,0,0.1,0,0.2c0,0.1-0.1,0.1-0.1,0.1l-0.7-0.1c-0.5,0-0.7-0.1-0.8-0.1c-0.2,0-0.3-0.1-0.3-0.3
			c0-0.1,0-0.2,0.1-0.2l0.7-0.5c-0.4-0.1-0.6-0.1-0.7-0.2c0,0-0.1-0.1-0.1-0.2c0-0.1,0-0.1,0-0.1c0.3-0.2,0.5-0.4,0.7-0.5
			c0,0,0,0,0,0c0.1,0,0.2,0.1,0.2,0.2c0,0,0,0.1-0.1,0.2c-0.1,0.1-0.2,0.2-0.2,0.2C17.3,53,17.4,53,17.5,53.1z"/>
		<path class="st44" d="M21.5,50.4c-0.2,0.1-0.2,0.3-0.2,0.4c0,0,0,0,0,0c0,0,0,0,0.1,0c0.2,0,0.3,0,0.4,0c0,0,0.1,0,0.1,0
			c0.2,0,0.3,0.1,0.3,0.3c0,0.2-0.1,0.2-0.2,0.3c-0.1,0-0.2,0-0.4,0c-0.6,0-0.9-0.2-0.9-0.6c0-0.1,0-0.1,0-0.1
			c0.1-0.2,0.2-0.5,0.5-0.7c0.1-0.1,0.2-0.2,0.2-0.2c0.1-0.1,0.2-0.1,0.3-0.2c0,0,0.1,0,0.1,0c0.2,0.1,0.3,0.2,0.3,0.3
			c0,0.1-0.1,0.1-0.2,0.2C21.7,50.2,21.6,50.3,21.5,50.4z"/>
		<path class="st44" d="M21.9,52.3c0.2,0,0.3,0,0.4,0.1c0.1,0.1,0.2,0.2,0.2,0.4c0,0.1,0,0.2-0.1,0.3c-0.2,0.2-0.4,0.4-0.9,0.6
			c-0.3,0.1-0.6,0.1-1.1,0.1c-0.2,0.1-0.4,0.3-0.5,0.5c0,0,0,0.1,0,0.1c0,0.1,0.1,0.2,0.3,0.3c0.1,0,0.2,0,0.5,0c0.1,0,0.3,0,0.5,0
			c0.3,0,0.4-0.1,0.4-0.1c0.1,0,0.2,0.1,0.2,0.3c0,0.1,0,0.2-0.1,0.2c-0.3,0.1-0.6,0.1-1,0.1c-0.1,0-0.2,0-0.2,0
			c-0.5-0.1-0.8-0.2-1-0.5c-0.1-0.1-0.1-0.2-0.1-0.3c0-0.2,0.2-0.5,0.5-0.8c-0.1-0.1-0.1-0.2-0.1-0.3c0-0.1,0-0.2,0.1-0.4
			c0.1-0.1,0.1-0.2,0.2-0.3c0.1-0.1,0.3-0.2,0.4-0.2c0.1,0,0.2,0,0.3,0l0.3,0.1C21.4,52.3,21.6,52.3,21.9,52.3z M20.7,52.8
			c-0.1,0-0.2,0-0.3,0.1s-0.1,0.2-0.2,0.2c0,0.1,0,0.1,0.1,0.1c0,0,0.1,0,0.1,0c0.1,0,0.2-0.1,0.3-0.3
			C20.8,52.8,20.8,52.8,20.7,52.8z M21.2,53.2C21.2,53.2,21.3,53.2,21.2,53.2c0.1,0,0.3,0,0.4-0.1c0.2-0.1,0.3-0.2,0.3-0.3
			c0,0,0,0,0-0.1c-0.1,0-0.3,0-0.4,0.1C21.3,53,21.2,53.1,21.2,53.2C21.2,53.2,21.2,53.2,21.2,53.2z"/>
		<path class="st44" d="M24.7,55.7c0.1,0,0.1,0,0.2,0.1c0,0.1,0.1,0.1,0.1,0.2c0,0,0,0.1-0.1,0.2c-0.1,0.1-0.2,0.2-0.5,0.3L23.5,57
			c-0.2,0.1-0.3,0.2-0.4,0.2c0,0-0.1,0-0.1,0c-0.1,0-0.1,0-0.1-0.1c-0.1-0.1-0.1-0.2-0.1-0.2c0-0.1,0.1-0.2,0.2-0.2
			c0.5-0.3,1.1-0.6,1.6-0.9C24.7,55.7,24.7,55.7,24.7,55.7z"/>
		<path class="st44" d="M25.7,52.9c0-0.1-0.1-0.1-0.3-0.1L25,52.9c0,0-0.1,0-0.2,0c-0.1,0-0.1,0-0.2,0c-0.1,0-0.1,0-0.1,0
			c0-0.1-0.1-0.1-0.1-0.2c0,0,0-0.1,0-0.2c0-0.1,0.2-0.2,0.6-0.2c0.1,0,0.3,0,0.6,0c0.3,0,0.5,0.1,0.6,0.2c0.1,0.1,0.1,0.2,0.1,0.3
			c0,0.1,0,0.1-0.1,0.2c-0.1,0.1-0.1,0.2-0.2,0.2c-0.1,0.1-0.3,0.2-0.4,0.3c-0.3,0.2-0.7,0.4-1.2,0.6c-0.3,0.1-0.5,0.2-0.8,0.3
			c-0.1,0-0.2,0-0.3,0c-0.1-0.2-0.2-0.3-0.2-0.4c0-0.1,0.1-0.2,0.2-0.2c0,0,0.1,0,0.2,0c0.1,0,0.1,0,0.2,0c0.1,0,0.1,0,0.2,0
			c0.2-0.1,0.3-0.1,0.3-0.1c0.2-0.1,0.5-0.2,0.8-0.4C25.3,53.2,25.6,53,25.7,52.9C25.7,52.9,25.7,52.9,25.7,52.9z"/>
		<path class="st44" d="M28.5,55.7c0.1,0,0.1,0,0.2,0.1c0,0.1,0.1,0.1,0.1,0.2c0,0,0,0.1-0.1,0.2c-0.1,0.1-0.2,0.2-0.5,0.3L27.2,57
			c-0.2,0.1-0.3,0.2-0.4,0.2c0,0-0.1,0-0.1,0c-0.1,0-0.1,0-0.1-0.1c-0.1-0.1-0.1-0.2-0.1-0.2c0-0.1,0.1-0.2,0.2-0.2
			c0.5-0.3,1.1-0.6,1.6-0.9C28.4,55.7,28.5,55.7,28.5,55.7z"/>
		<path class="st44" d="M28.2,53.4c-0.2,0-0.3,0-0.3,0c-0.1,0-0.2-0.1-0.2-0.2c0-0.1,0.1-0.2,0.3-0.3l0.3-0.1
			c0.4-0.2,0.6-0.3,0.7-0.5c0.1-0.1,0.1-0.1,0.2-0.1c0,0,0.1,0,0.1,0.1c0.1,0.1,0.1,0.2,0.1,0.3c0,0.1-0.1,0.1-0.1,0.1
			c-0.1,0.1-0.2,0.1-0.2,0.1c0.4,0,0.7-0.1,0.8-0.1c0.1,0,0.1,0.1,0.1,0.2c0,0.1,0,0.1,0,0.2l-0.2,0.1c-0.7,0.4-1.3,0.8-1.8,1.1
			c-0.6,0.4-1,0.6-1.2,0.7c-0.1,0.1-0.3,0.2-0.5,0.2c0,0-0.1,0-0.1,0c-0.1,0-0.2-0.1-0.2-0.2c-0.1-0.1-0.1-0.2-0.1-0.3
			c0-0.1,0-0.2,0.1-0.2c0,0,0.1,0,0.2,0c0.1,0,0.1,0,0.2,0c0.1,0,0.2,0,0.3-0.1c0,0,0,0,0,0h0v0c0,0,0,0,0,0l0.3-0.1
			c0.6-0.3,1.2-0.7,1.9-1.1C28.5,53.4,28.3,53.4,28.2,53.4z"/>
		<path class="st44" d="M35.4,55.5c0.1,0,0.1,0,0.2,0.1c0,0.1,0.1,0.1,0.1,0.2c0,0,0,0.1-0.1,0.2c-0.1,0.1-0.2,0.2-0.5,0.3l-0.9,0.5
			c-0.2,0.1-0.3,0.2-0.4,0.2c0,0-0.1,0-0.1,0c-0.1,0-0.1,0-0.1-0.1c-0.1-0.1-0.1-0.2-0.1-0.2c0-0.1,0.1-0.2,0.2-0.2
			c0.5-0.3,1.1-0.6,1.6-0.9C35.4,55.5,35.4,55.5,35.4,55.5z M35.8,56.1c0.1,0,0.1,0,0.2,0.1c0,0.1,0.1,0.1,0.1,0.2
			c0,0,0,0.1-0.1,0.2c-0.1,0.1-0.2,0.2-0.5,0.3l-0.9,0.5c-0.2,0.1-0.3,0.2-0.4,0.2c0,0-0.1,0-0.1,0c-0.1,0-0.1,0-0.1-0.1
			c-0.1-0.1-0.1-0.2-0.1-0.2c0-0.1,0.1-0.2,0.2-0.2c0.5-0.3,1.1-0.6,1.6-0.9C35.7,56.1,35.8,56.1,35.8,56.1z"/>
		<path class="st44" d="M35.1,53.8c-0.2,0.2-0.4,0.3-0.7,0.5c-0.3,0.2-0.5,0.3-0.6,0.3c0,0,0,0,0,0c-0.1,0-0.2-0.1-0.3-0.2
			c-0.1-0.1-0.1-0.2-0.1-0.3c0-0.1,0.1-0.2,0.2-0.2c0,0,0,0,0,0c0,0,0,0,0.1,0c0,0,0,0,0.2,0c0.1,0,0.2,0,0.2,0
			c0.1-0.1,0.3-0.2,0.6-0.3c0.3-0.2,0.6-0.4,0.8-0.6c-0.1,0-0.1-0.1-0.1-0.2c0-0.1,0.1-0.2,0.2-0.3c0.1-0.1,0.2-0.1,0.4-0.1
			c0.2,0,0.3,0.1,0.3,0.3c0,0,0.1,0,0.3-0.1c0,0,0.1-0.1,0.3-0.2c0,0,0.1,0,0.1,0c0,0,0.1,0,0.1,0c0.1,0,0.1,0.1,0.1,0.2
			c0,0.1,0,0.1-0.1,0.2c0,0.1-0.1,0.1-0.1,0.1c0,0,0,0,0.1,0c0.1,0,0.3-0.1,0.6-0.4c0.1-0.1,0.2-0.1,0.2-0.1c0.1,0,0.1,0.1,0.2,0.2
			c0,0.1,0,0.1,0,0.2c-0.2,0.3-0.4,0.5-0.7,0.6c-0.1,0.1-0.3,0.1-0.4,0.1c-0.2,0-0.4-0.1-0.4-0.3c-0.1,0-0.3,0-0.5,0
			C35.8,53.2,35.5,53.4,35.1,53.8z"/>
		<path class="st44" d="M40.5,50.4c-0.2,0.1-0.2,0.3-0.2,0.4c0,0,0,0,0,0c0,0,0,0,0.1,0c0.2,0,0.3,0,0.4,0c0,0,0.1,0,0.1,0
			c0.2,0,0.3,0.1,0.3,0.3c0,0.2-0.1,0.2-0.2,0.3c-0.1,0-0.2,0-0.4,0c-0.6,0-0.9-0.2-0.9-0.6c0-0.1,0-0.1,0-0.1
			c0.1-0.2,0.2-0.5,0.5-0.7c0.1-0.1,0.2-0.2,0.2-0.2c0.1-0.1,0.2-0.1,0.3-0.2c0,0,0.1,0,0.1,0c0.2,0.1,0.3,0.2,0.3,0.3
			c0,0.1-0.1,0.1-0.2,0.2C40.6,50.2,40.5,50.3,40.5,50.4z"/>
		<path class="st44" d="M39.1,53.7c0-0.1,0.1-0.2,0.3-0.3c0.1,0,0.3-0.1,0.5-0.2c-0.1,0-0.2-0.1-0.2-0.1c-0.1-0.1-0.2-0.1-0.2-0.2
			c0-0.1,0-0.1,0-0.2c0-0.1,0.1-0.1,0.1-0.1c0.3,0,0.5-0.1,0.7-0.2c0.1-0.1,0.2-0.1,0.3-0.1c0,0,0,0,0,0c0.1,0,0.1,0.1,0.1,0.2
			c0,0,0,0.1,0,0.2c0,0,0,0,0,0c0,0-0.1,0.1-0.1,0.1c0,0-0.1,0.1-0.1,0.1c-0.1,0-0.1,0.1-0.1,0.1c-0.1,0-0.1,0.1-0.1,0.1
			c0,0,0,0,0.1,0c0.2,0.1,0.3,0.1,0.3,0.2c0,0,0,0.1,0,0.1c0,0.1-0.1,0.1-0.1,0.1c-0.1,0.1-0.2,0.2-0.3,0.2
			c-0.1,0.1-0.1,0.1-0.1,0.1c0,0,0,0,0.1,0.1c0,0.1,0.1,0.1,0.1,0.1c0,0,0,0,0,0c0,0.1-0.1,0.2-0.3,0.3c-1.4,0.8-2.2,1.3-2.4,1.3
			c-0.1,0-0.2-0.1-0.3-0.2c-0.1-0.1-0.1-0.2-0.1-0.3c0-0.1,0-0.2,0.2-0.2c0,0,0.1,0,0.1,0c0,0,0.1,0,0.2,0c0.1,0,0.1,0,0.2,0
			c0.3-0.1,0.5-0.2,0.6-0.3c0.4-0.2,0.7-0.4,0.9-0.5C39.2,53.9,39.1,53.8,39.1,53.7z M39.5,54.7c0.1-0.1,0.1-0.1,0.2-0.1
			c0.2,0,0.3,0.1,0.3,0.3c0,0.1,0,0.2-0.1,0.2c-0.1,0.1-0.1,0.1-0.2,0.1c-0.2,0-0.3-0.1-0.3-0.3C39.4,54.9,39.4,54.8,39.5,54.7z"/>
		<path class="st44" d="M44.5,49.6c0.3,0,0.4,0.1,0.6,0.4c0,0.1,0,0.2,0,0.3c0,0.2-0.1,0.4-0.2,0.5c-0.3,0.4-0.7,0.6-1.3,0.6
			c-0.3,0-0.5-0.1-0.6-0.3C43,51,43,50.9,43,50.7c0-0.2,0.1-0.4,0.3-0.6C43.6,49.8,44,49.6,44.5,49.6z M43.6,50.7
			c0,0,0.1,0.1,0.2,0.1h0.1c0,0,0.1,0,0.1,0c0.3-0.1,0.4-0.2,0.5-0.4c0,0,0-0.1,0-0.1c0-0.1-0.1-0.2-0.3-0.2c-0.1,0-0.2,0.1-0.3,0.1
			c-0.1,0.1-0.2,0.1-0.3,0.2C43.6,50.6,43.6,50.6,43.6,50.7C43.6,50.7,43.6,50.7,43.6,50.7z"/>
		<path class="st44" d="M44.2,52.9c0-0.1-0.1-0.1-0.3-0.1l-0.5,0.1c0,0-0.1,0-0.2,0c-0.1,0-0.1,0-0.2,0c-0.1,0-0.1,0-0.1,0
			c0-0.1-0.1-0.1-0.1-0.2c0,0,0-0.1,0-0.2c0-0.1,0.2-0.2,0.6-0.2c0.1,0,0.3,0,0.6,0c0.3,0,0.5,0.1,0.6,0.2c0.1,0.1,0.1,0.2,0.1,0.3
			c0,0.1,0,0.1-0.1,0.2c-0.1,0.1-0.1,0.2-0.2,0.2c-0.1,0.1-0.3,0.2-0.4,0.3c-0.3,0.2-0.7,0.4-1.2,0.6c-0.3,0.1-0.5,0.2-0.8,0.3
			c-0.1,0-0.2,0-0.3,0c-0.1-0.2-0.2-0.3-0.2-0.4c0-0.1,0.1-0.2,0.2-0.2c0,0,0.1,0,0.2,0c0.1,0,0.1,0,0.2,0c0.1,0,0.1,0,0.2,0
			c0.2-0.1,0.3-0.1,0.3-0.1c0.2-0.1,0.5-0.2,0.8-0.4C43.9,53.2,44.1,53,44.2,52.9C44.2,52.9,44.2,52.9,44.2,52.9z"/>
		<path class="st44" d="M48.7,49.7c0.2,0,0.3,0.1,0.3,0.3c0,0.1-0.2,0.3-0.6,0.4c-0.2,0.1-0.3,0.2-0.4,0.3c0,0.1,0.1,0.1,0.3,0.1
			c0.1,0,0.3,0,0.4,0.1c0.1,0,0.1,0.1,0.1,0.3c0,0.2-0.2,0.3-0.4,0.3c-0.2,0-0.4,0-0.6-0.1c-0.2-0.1-0.3-0.2-0.4-0.3
			c-0.3,0.2-0.6,0.4-1.1,0.4c-0.1,0-0.2,0-0.3,0c-0.1,0-0.2-0.1-0.2-0.2c0-0.2,0.1-0.3,0.2-0.3c0.1,0,0.2,0,0.4-0.1
			c0.3-0.1,0.4-0.1,0.5-0.2c0-0.1-0.1-0.1-0.3-0.2c0,0-0.2,0-0.4,0c-0.1,0-0.2-0.1-0.2-0.2c0,0,0,0,0-0.1c0-0.2,0.2-0.3,0.4-0.3
			c0.1,0,0.3,0,0.4,0.1c0.3,0.1,0.5,0.2,0.6,0.5c0.1-0.2,0.3-0.3,0.4-0.4c0.1-0.1,0.4-0.1,0.6-0.2C48.6,49.7,48.6,49.7,48.7,49.7z"
			/>
		<path class="st44" d="M48,52.4c0.1,0,0.1,0,0.1-0.1c0.1,0,0.1,0,0.2,0.1c0,0.1,0.1,0.1,0.1,0.2c0,0,0,0.1-0.1,0.2
			c-0.2,0.2-0.6,0.4-1.1,0.7c-0.6,0.4-1.1,0.5-1.3,0.6c-0.1,0-0.1,0-0.2-0.1c-0.1-0.1-0.1-0.1-0.1-0.2c0,0,0.1-0.1,0.2-0.3
			c0.1-0.2,0.2-0.4,0.2-0.5l0-0.3c0-0.2,0-0.3,0.1-0.3c0.1,0,0.1,0,0.2,0c0.1,0,0.2,0.1,0.2,0.3c0,0.1,0,0.2,0,0.2
			c0,0.2,0,0.4-0.1,0.5C46.7,53.3,47.2,53,48,52.4z"/>
	</g>
</g>
</svg>
