<svg id="Layer_1" data-name="Layer 1" xmlns="http://www.w3.org/2000/svg" xmlns:xlink="http://www.w3.org/1999/xlink" viewBox="0 0 60 80"><defs><style>.cls-1,.cls-2{fill:#d71e25;}.cls-10,.cls-11,.cls-12,.cls-13,.cls-14,.cls-15,.cls-16,.cls-17,.cls-18,.cls-2,.cls-3,.cls-4,.cls-5,.cls-6,.cls-7,.cls-8,.cls-9{fill-rule:evenodd;}.cls-3{fill:url(#New_Gradient_Swatch_4);}.cls-4{fill:url(#linear-gradient);}.cls-42,.cls-5{fill:#891812;}.cls-6{fill:url(#linear-gradient-2);}.cls-7{fill:url(#New_Gradient_Swatch_5);}.cls-8{fill:url(#New_Gradient_Swatch_5-2);}.cls-9{fill:#df1d22;}.cls-10{fill:url(#New_Gradient_Swatch_4-2);}.cls-11{fill:url(#New_Gradient_Swatch_4-3);}.cls-12{fill:url(#New_Gradient_Swatch_4-4);}.cls-13{fill:url(#linear-gradient-3);}.cls-14{fill:url(#New_Gradient_Swatch_5-3);}.cls-15{fill:url(#New_Gradient_Swatch_5-4);}.cls-16{fill:url(#New_Gradient_Swatch_4-5);}.cls-17{fill:url(#New_Gradient_Swatch_5-5);}.cls-18{fill:url(#New_Gradient_Swatch_4-6);}.cls-19{fill:url(#linear-gradient-4);}.cls-20{fill:url(#linear-gradient-5);}.cls-21{fill:url(#linear-gradient-6);}.cls-22{fill:url(#linear-gradient-7);}.cls-23{fill:url(#linear-gradient-8);}.cls-24{fill:url(#linear-gradient-9);}.cls-25{fill:url(#linear-gradient-10);}.cls-26{fill:url(#linear-gradient-11);}.cls-27{fill:url(#linear-gradient-12);}.cls-28{fill:url(#linear-gradient-13);}.cls-29{fill:url(#linear-gradient-14);}.cls-30{fill:url(#linear-gradient-15);}.cls-31{fill:url(#linear-gradient-16);}.cls-32{fill:url(#linear-gradient-17);}.cls-33{fill:url(#linear-gradient-18);}.cls-34{fill:url(#linear-gradient-19);}.cls-35{fill:url(#linear-gradient-20);}.cls-36{fill:url(#linear-gradient-21);}.cls-37{fill:url(#linear-gradient-22);}.cls-38{fill:url(#linear-gradient-23);}.cls-39{fill:url(#linear-gradient-24);}.cls-40{fill:url(#linear-gradient-25);}.cls-41{fill:url(#linear-gradient-26);}</style><linearGradient id="New_Gradient_Swatch_4" x1="9.6" y1="20.03" x2="29.91" y2="20.03" gradientUnits="userSpaceOnUse"><stop offset="0" stop-color="#df1d22" stop-opacity="0"/><stop offset="1" stop-color="#891812"/></linearGradient><linearGradient id="linear-gradient" x1="19.56" y1="25.25" x2="30" y2="25.25" gradientUnits="userSpaceOnUse"><stop offset="0" stop-color="#891812"/><stop offset="1" stop-color="#5a120f"/></linearGradient><linearGradient id="linear-gradient-2" x1="19.66" y1="14.86" x2="40.46" y2="14.86" gradientUnits="userSpaceOnUse"><stop offset="0" stop-color="#891812"/><stop offset="1" stop-color="#df1d22" stop-opacity="0"/></linearGradient><linearGradient id="New_Gradient_Swatch_5" x1="22.62" y1="39.52" x2="35.7" y2="31.79" xlink:href="#linear-gradient-2"/><linearGradient id="New_Gradient_Swatch_5-2" x1="10.8" y1="15.52" x2="31.96" y2="26.97" xlink:href="#linear-gradient-2"/><linearGradient id="New_Gradient_Swatch_4-2" x1="26.85" y1="14.76" x2="6.09" y2="14.85" xlink:href="#New_Gradient_Swatch_4"/><linearGradient id="New_Gradient_Swatch_4-3" x1="44.33" y1="23.57" x2="32.01" y2="15.29" xlink:href="#New_Gradient_Swatch_4"/><linearGradient id="New_Gradient_Swatch_4-4" x1="24.88" y1="35.1" x2="34.91" y2="22.99" xlink:href="#New_Gradient_Swatch_4"/><linearGradient id="linear-gradient-3" x1="34.19" y1="5.76" x2="40.67" y2="13.94" xlink:href="#linear-gradient-2"/><linearGradient id="New_Gradient_Swatch_5-3" x1="35.37" y1="27.96" x2="52.17" y2="40.16" xlink:href="#linear-gradient-2"/><linearGradient id="New_Gradient_Swatch_5-4" x1="35.79" y1="32.67" x2="20.24" y2="42.15" xlink:href="#linear-gradient-2"/><linearGradient id="New_Gradient_Swatch_4-5" x1="45.25" y1="11.63" x2="45.78" y2="26.05" xlink:href="#New_Gradient_Swatch_4"/><linearGradient id="New_Gradient_Swatch_5-5" x1="40.87" y1="15.11" x2="57.86" y2="14.64" xlink:href="#linear-gradient-2"/><linearGradient id="New_Gradient_Swatch_4-6" x1="38.18" y1="29.31" x2="45.06" y2="32.75" xlink:href="#New_Gradient_Swatch_4"/><linearGradient id="linear-gradient-4" x1="25.42" y1="46.53" x2="23.12" y2="46.92" gradientUnits="userSpaceOnUse"><stop offset="0" stop-color="#df1d22"/><stop offset="1" stop-color="#891812"/></linearGradient><linearGradient id="linear-gradient-5" x1="23.96" y1="46.87" x2="20.55" y2="47.46" xlink:href="#linear-gradient-4"/><linearGradient id="linear-gradient-6" x1="42.2" y1="51.98" x2="45.3" y2="51.01" gradientUnits="userSpaceOnUse"><stop offset="0.09" stop-color="#df1d22"/><stop offset="1" stop-color="#891812"/></linearGradient><linearGradient id="linear-gradient-7" x1="27.13" y1="52.53" x2="42.91" y2="52.53" gradientUnits="userSpaceOnUse"><stop offset="0.12" stop-color="#df1d22"/><stop offset="1" stop-color="#891812"/></linearGradient><linearGradient id="linear-gradient-8" x1="25.34" y1="58.41" x2="30.46" y2="54" gradientUnits="userSpaceOnUse"><stop offset="0.14" stop-color="#df1d22"/><stop offset="1" stop-color="#891812"/></linearGradient><linearGradient id="linear-gradient-9" x1="46.62" y1="54.97" x2="49.51" y2="52.48" xlink:href="#linear-gradient-4"/><linearGradient id="linear-gradient-10" x1="50.39" y1="53.54" x2="52.69" y2="52.25" gradientUnits="userSpaceOnUse"><stop offset="0.12" stop-color="#df1d22"/><stop offset="1" stop-color="#891812"/></linearGradient><linearGradient id="linear-gradient-11" x1="20.27" y1="51.66" x2="20.57" y2="51.66" xlink:href="#linear-gradient-4"/><linearGradient id="linear-gradient-12" x1="23.34" y1="51.45" x2="22.97" y2="53.08" gradientUnits="userSpaceOnUse"><stop offset="0.21" stop-color="#df1d22"/><stop offset="1" stop-color="#891812"/></linearGradient><linearGradient id="linear-gradient-13" x1="24.78" y1="51.02" x2="24.37" y2="52.23" gradientUnits="userSpaceOnUse"><stop offset="0.16" stop-color="#df1d22"/><stop offset="1" stop-color="#891812"/></linearGradient><linearGradient id="linear-gradient-14" x1="17.36" y1="56.21" x2="19.91" y2="53.31" xlink:href="#linear-gradient-4"/><linearGradient id="linear-gradient-15" x1="21.21" y1="53.09" x2="19.85" y2="51.2" xlink:href="#linear-gradient-4"/><linearGradient id="linear-gradient-16" x1="10.95" y1="46.59" x2="12.06" y2="47.27" xlink:href="#linear-gradient-4"/><linearGradient id="linear-gradient-17" x1="10.18" y1="46.56" x2="15.74" y2="46.56" gradientUnits="userSpaceOnUse"><stop offset="0.27" stop-color="#df1d22"/><stop offset="1" stop-color="#891812"/></linearGradient><linearGradient id="linear-gradient-18" x1="49.26" y1="45.77" x2="50.37" y2="46.96" xlink:href="#linear-gradient-4"/><linearGradient id="linear-gradient-19" x1="50.66" y1="46.22" x2="52.66" y2="47.56" xlink:href="#linear-gradient-4"/><linearGradient id="linear-gradient-20" x1="47.41" y1="44.01" x2="48.71" y2="45.36" xlink:href="#linear-gradient-4"/><linearGradient id="linear-gradient-21" x1="49.18" y1="44.75" x2="50.95" y2="45.69" xlink:href="#linear-gradient-4"/><linearGradient id="linear-gradient-22" x1="32.5" y1="46.78" x2="33.68" y2="47.64" xlink:href="#linear-gradient-4"/><linearGradient id="linear-gradient-23" x1="31.04" y1="47.02" x2="37.51" y2="47.02" gradientUnits="userSpaceOnUse"><stop offset="0.34" stop-color="#df1d22"/><stop offset="1" stop-color="#891812"/></linearGradient><linearGradient id="linear-gradient-24" x1="12.86" y1="50.31" x2="14.59" y2="51.14" gradientUnits="userSpaceOnUse"><stop offset="0.23" stop-color="#df1d22"/><stop offset="1" stop-color="#891812"/></linearGradient><linearGradient id="linear-gradient-25" x1="6.67" y1="54.85" x2="10.53" y2="54.93" gradientUnits="userSpaceOnUse"><stop offset="0.19" stop-color="#df1d22"/><stop offset="1" stop-color="#891812"/></linearGradient><linearGradient id="linear-gradient-26" x1="10.69" y1="52.11" x2="12.31" y2="55.24" gradientUnits="userSpaceOnUse"><stop offset="0.21" stop-color="#df1d22"/><stop offset="1" stop-color="#891812"/></linearGradient></defs><path class="cls-1" d="M45.68,27.84l5.19-7.77V9.62l0,0L40.44,4.4v0L30.05,9.67l-.05,0-.05,0L19.56,4.42v0L9.18,9.64l0,0V20.07l5.19,7.77m0,0,5.21,7.81h0l.05,0L30,40.88l10.39-5.25,0,0,5.21-7.81"/><polygon class="cls-2" points="19.56 25.25 30 20.08 19.56 14.81 19.56 25.25"/><polygon class="cls-2" points="30 20.03 19.56 25.2 30 30.46 30 20.03"/><polygon class="cls-2" points="19.56 14.86 30 9.69 19.56 4.42 19.56 14.86"/><polygon class="cls-2" points="30 9.64 19.56 14.81 30 20.08 30 9.64"/><polygon class="cls-2" points="19.56 35.66 30 30.49 19.56 25.22 19.56 35.66"/><polygon class="cls-2" points="30 30.44 19.56 35.61 30 40.88 30 30.44"/><polygon class="cls-2" points="19.52 25.25 19.56 25.27 19.56 25.22 19.52 25.25"/><polygon class="cls-2" points="19.56 25.25 9.13 20.07 19.56 14.81 19.56 25.25"/><polygon class="cls-2" points="19.56 14.83 9.13 9.66 19.56 4.4 19.56 14.83"/><polygon class="cls-2" points="9.13 9.62 19.56 14.79 9.13 20.05 9.13 9.62"/><polygon class="cls-2" points="19.56 25.2 14.32 27.84 9.13 20.07 9.13 20.03 19.56 25.2"/><polygon class="cls-2" points="19.56 35.66 14.35 27.86 19.56 25.22 19.56 35.66"/><polygon class="cls-2" points="40.44 25.25 30 20.08 40.44 14.81 40.44 25.25"/><polygon class="cls-2" points="30 20.03 40.44 25.2 30 30.46 30 20.03"/><polygon class="cls-2" points="40.44 14.86 30 9.69 40.44 4.42 40.44 14.86"/><polygon class="cls-2" points="30 9.64 40.44 14.81 30 20.08 30 9.64"/><polygon class="cls-2" points="40.44 35.66 30 30.49 40.44 25.22 40.44 35.66"/><polygon class="cls-2" points="30 30.44 40.44 35.61 30 40.88 30 30.44"/><polygon class="cls-2" points="40.48 25.25 40.44 25.27 40.44 25.22 40.48 25.25"/><polygon class="cls-2" points="40.44 25.25 50.87 20.07 40.44 14.81 40.44 25.25"/><polygon class="cls-2" points="40.44 14.83 50.87 9.66 40.44 4.4 40.44 14.83"/><polygon class="cls-2" points="50.87 9.62 40.44 14.79 50.87 20.05 50.87 9.62"/><polygon class="cls-2" points="40.44 25.2 45.68 27.84 50.87 20.07 50.87 20.03 40.44 25.2"/><polygon class="cls-2" points="40.44 35.66 45.65 27.86 40.44 25.22 40.44 35.66"/><polygon class="cls-2" points="19.52 25.25 19.56 25.27 19.56 25.22 19.52 25.25"/><polygon class="cls-2" points="40.48 25.25 40.44 25.27 40.44 25.22 40.48 25.25"/><polygon class="cls-3" points="19.56 25.25 30 20.08 19.56 14.81 19.56 25.25"/><polygon class="cls-4" points="30 20.03 19.56 25.2 30 30.46 30 20.03"/><polygon class="cls-5" points="19.56 14.86 30 9.69 19.56 4.42 19.56 14.86"/><polygon class="cls-6" points="30 9.64 19.56 14.81 30 20.08 30 9.64"/><polygon class="cls-2" points="19.56 35.66 30 30.49 19.56 25.22 19.56 35.66"/><polygon class="cls-7" points="30 30.44 19.56 35.61 30 40.88 30 30.44"/><polygon class="cls-8" points="19.56 25.25 9.13 20.07 19.56 14.81 19.56 25.25"/><polygon class="cls-9" points="19.56 14.83 9.13 9.66 19.56 4.4 19.56 14.83"/><polygon class="cls-10" points="9.13 9.62 19.56 14.79 9.13 20.05 9.13 9.62"/><polygon class="cls-9" points="19.56 25.2 14.32 27.84 9.13 20.07 9.13 20.03 19.56 25.2"/><polygon class="cls-5" points="19.56 35.66 14.35 27.86 19.56 25.22 19.56 35.66"/><polygon class="cls-11" points="40.44 25.25 30 20.08 40.44 14.81 40.44 25.25"/><polygon class="cls-12" points="30 20.03 40.44 25.2 30 30.46 30 20.03"/><polygon class="cls-13" points="40.44 14.86 30 9.69 40.44 4.42 40.44 14.86"/><polygon class="cls-9" points="30 9.64 40.44 14.81 30 20.08 30 9.64"/><polygon class="cls-14" points="40.44 35.66 30 30.49 40.44 25.22 40.44 35.66"/><polygon class="cls-15" points="30 30.44 40.44 35.61 30 40.88 30 30.44"/><polygon class="cls-16" points="40.44 25.25 50.87 20.07 40.44 14.81 40.44 25.25"/><polygon class="cls-5" points="40.44 14.83 50.87 9.66 40.44 4.4 40.44 14.83"/><polygon class="cls-17" points="50.87 9.62 40.44 14.79 50.87 20.05 50.87 9.62"/><polygon class="cls-5" points="40.44 25.2 45.68 27.84 50.87 20.07 50.87 20.03 40.44 25.2"/><polygon class="cls-18" points="40.44 35.66 45.65 27.86 40.44 25.22 40.44 35.66"/><path class="cls-19" d="M24.69,45.05a3.43,3.43,0,0,0-1.57.74,3,3,0,0,0-.42.58c.57-.5,1.62-.27,1.07.86A1.71,1.71,0,0,1,23,48c.18.2.51.27,1.07.29a3.1,3.1,0,0,0,.78-.06A2.2,2.2,0,0,0,24.69,45.05Z"/><path class="cls-20" d="M22.7,46.37a3.09,3.09,0,0,1,2-1.32,2.13,2.13,0,0,0-1.26-.28,2.61,2.61,0,0,0-2.17,3.4,1.87,1.87,0,0,0,2.62.83,2.89,2.89,0,0,0,.95-.77C21.58,48.55,22.7,46.37,22.7,46.37Z"/><path class="cls-21" d="M44.75,50.5a2.1,2.1,0,0,0-.72-.67,1.36,1.36,0,0,0-.84-.12c-.45.12-.42.59-.39,1v.06a3.32,3.32,0,0,1,0,1.85,4.25,4.25,0,0,1-2.35,1.61l.28,0c1.47-.16,3.15-.51,4.13-1.73A1.53,1.53,0,0,0,44.75,50.5Z"/><path class="cls-22" d="M42.8,50.75a.82.82,0,0,1-.51.84,5.15,5.15,0,0,1-1.59.47l-1.14.15a37.4,37.4,0,0,1-6.17.08,12.47,12.47,0,0,0-5.16.49,3.55,3.55,0,0,0-1.1.72,2.89,2.89,0,0,1,.9-.41c1.45-.36,3.21.62,6.17,1.06l1.11.06a42.25,42.25,0,0,0,4.5,0l.61,0a4.25,4.25,0,0,0,2.35-1.61A3.32,3.32,0,0,0,42.8,50.75Z"/><path class="cls-23" d="M28,53.09a2.89,2.89,0,0,0-.9.41,10.2,10.2,0,0,0-1.47,1.86l-.16.25c-.23.34-.51.62-.48,1.06a1.36,1.36,0,0,0,.38.84.94.94,0,0,0,.84.29c.33-.06.5-.4.69-.64A12.35,12.35,0,0,1,28.76,55,3.39,3.39,0,0,1,30,54.37a13,13,0,0,1,4.19-.22C31.24,53.71,29.48,52.73,28,53.09Z"/><path class="cls-24" d="M47.83,52.54c-.55.5-1.1,1-1.64,1.54-.35.34-.7.68-1.06,1s-.64.55-.67.94.46.61.84.62a1.25,1.25,0,0,0,.89-.37c.06-.05,4.16-3.6,4.12-3.17v.07C50.49,52.59,49,51.46,47.83,52.54Z"/><path class="cls-25" d="M51.53,50.42a.86.86,0,0,0-.4-.13c-.88,0-1.91,1-2.54,1.57-.26.22-.51.45-.76.68,1.21-1.07,2.66.05,2.48.64a9.62,9.62,0,0,1-.42,1.28,2.22,2.22,0,0,0-.15.64,1.15,1.15,0,0,0,.49,1.07.88.88,0,0,0,.67.13.93.93,0,0,0,.55-.47c.08-.14.24-.64.35-.92.51-1.44,1-3.13-.13-4.36A.83.83,0,0,0,51.53,50.42Z"/><path class="cls-26" d="M20.27,51.56a1.53,1.53,0,0,0,.3.19"/><path class="cls-27" d="M25.82,51.82c0,.71-1.49.8-2.6-.14-.52,0-.83-.63-1.37-.33s-.67.65-1.23.43l-.05,0c1.2.84,2.48,2.5,4.35,1.49a2.58,2.58,0,0,0,.69-.51A.9.9,0,0,0,25.82,51.82Z"/><path class="cls-28" d="M25.82,51.82a1.05,1.05,0,0,0-.19-.34A1.43,1.43,0,0,0,24.38,51c-.4.14-.7.68-1.16.68C24.33,52.62,25.82,52.53,25.82,51.82Z"/><path class="cls-29" d="M19.44,53.16a3.22,3.22,0,0,0-1.3.68s-.28.41-.38.52a18,18,0,0,1-2,1.84c-.32.29-1,.57-.86,1.1a1.16,1.16,0,0,0,.88.84c.93.22,1.71-.78,2.31-1.38a29.68,29.68,0,0,0,2.44-2.58c.28-.35.55-.83,1.06-.62A2.59,2.59,0,0,0,19.44,53.16Z"/><path class="cls-30" d="M20.27,51.56a1.09,1.09,0,0,0-.63-.27,1,1,0,0,0-.88.57,2.11,2.11,0,0,0-.12.83,3.18,3.18,0,0,1-.5,1.15,3.22,3.22,0,0,1,1.3-.68,2.59,2.59,0,0,1,2.11.4,4.06,4.06,0,0,0,1.19.39,3.5,3.5,0,0,0,1.67-.44c.16-.08.34-.17.51-.27-1.87,1-3.15-.65-4.35-1.49a1.53,1.53,0,0,1-.3-.19"/><path class="cls-31" d="M13,46a5.72,5.72,0,0,1-1.12.71c-.05,0-1.09.57-1.3.72a.85.85,0,0,0-.4.59C10.75,48.46,12,47.16,13,46Z"/><path class="cls-32" d="M15.56,44.8a.84.84,0,0,0-.65-.43.85.85,0,0,0-.29.09A7,7,0,0,0,13,46c-1,1.18-2.26,2.48-2.82,2a.66.66,0,0,0,0,.15c0,.47.47.89,1.86.34a9.13,9.13,0,0,0,1.68-1C14.5,46.94,16.32,45.94,15.56,44.8Z"/><path class="cls-33" d="M52,45.35a8.65,8.65,0,0,1-1.27.69l-1.9.8a3.25,3.25,0,0,0-.33.17,1.3,1.3,0,0,0-.36.42.57.57,0,0,0,0,.39C49,48,50.69,46.31,52,45.35Z"/><path class="cls-34" d="M54.06,45.47a1.43,1.43,0,0,0-.08-.22c-.32-.68-.92-.45-1.47-.2-.19.09-.37.19-.56.3-1.26,1-3,2.68-3.85,2.47a.21.21,0,0,0,0,.07,1.2,1.2,0,0,0,.54.24,3.43,3.43,0,0,0,1.06,0,3.67,3.67,0,0,0,.5-.11,27.24,27.24,0,0,0,3.16-1.31,1.13,1.13,0,0,0,.51-.39,1.27,1.27,0,0,0,.16-.53A1.55,1.55,0,0,0,54.06,45.47Z"/><path class="cls-35" d="M50.3,43.16l-.61.46a8.5,8.5,0,0,1-1.83,1.2,5,5,0,0,0-1.77,1.08.47.47,0,0,0,0,.61C47,46.84,48.94,44.41,50.3,43.16Z"/><path class="cls-36" d="M52.36,43.51a1.21,1.21,0,0,0-.82-.91,2,2,0,0,0-.29,0,.54.54,0,0,0-.15,0,5.77,5.77,0,0,0-.58.39l-.22.17c-1.36,1.25-3.34,3.68-4.2,3.35a.55.55,0,0,0,.22.14,2.18,2.18,0,0,0,1,0c1.46-.22,2.77-1.24,4.12-1.86C52,44.57,52.49,44.15,52.36,43.51Z"/><path class="cls-37" d="M35.16,45.7a11.88,11.88,0,0,1-2.32,1.47c-.16.08-1,.55-1.15.65s-.65.58-.65.9C31.74,49.47,33.72,47.1,35.16,45.7Z"/><path class="cls-38" d="M37.18,45.25a1.68,1.68,0,0,0-.53-.31.9.9,0,0,0-.24,0,.64.64,0,0,0-.21,0,1.6,1.6,0,0,0-.62.37l-.25.22-.17.13c-1.44,1.4-3.42,3.77-4.12,3a.33.33,0,0,0,.27.31,3.93,3.93,0,0,0,2.26-.3,15.85,15.85,0,0,0,2.31-1.12c.64-.36,1.55-.66,1.63-1.51A1.13,1.13,0,0,0,37.18,45.25Z"/><path class="cls-39" d="M14.59,50.82c.34-.85-.23-1.09-.4-1.14a.3.3,0,0,0-.13,0,1.06,1.06,0,0,0-.37.08.63.63,0,0,0-.49.85c.11.35.73.71.44,1.08a.6.6,0,0,1-.23.17A2,2,0,0,0,14.59,50.82Z"/><path class="cls-40" d="M11.13,51.92a1.35,1.35,0,0,0-.52.36C8.9,54.18,8.28,55.42,6.05,57l-.1.1a.43.43,0,0,0,0,.39,1.77,1.77,0,0,0,1.8.33C11.08,55.59,9.74,53.22,11.13,51.92Z"/><path class="cls-41" d="M15.15,50a4.07,4.07,0,0,0-1-.33c.17,0,.74.29.4,1.14a2,2,0,0,1-1.18,1,.72.72,0,0,1-.41,0,3.06,3.06,0,0,0-1.87,0C9.66,53.18,11,55.64,7.8,57.77h0v0c1.44-.55,2.67-2.78,3.85-3.7a2.43,2.43,0,0,1,1.22-.45l.7-.07a5.65,5.65,0,0,0,.7-.11,2.13,2.13,0,0,0,1.64-2.18A1.49,1.49,0,0,0,15.15,50Z"/><path class="cls-42" d="M10.89,64.51a.86.86,0,0,1,.77.51,1.23,1.23,0,0,1,.05.35,1.17,1.17,0,0,1-.22.73,2.28,2.28,0,0,1-1.75.84,1,1,0,0,1-.8-.37,1.13,1.13,0,0,1-.13-.51,1.21,1.21,0,0,1,.38-.8A2.19,2.19,0,0,1,10.89,64.51ZM9.63,66a.43.43,0,0,0,.26.15h.32a1.49,1.49,0,0,0,.72-.5.27.27,0,0,0,0-.12c0-.19-.15-.27-.45-.26a1.27,1.27,0,0,0-.38.14,1.21,1.21,0,0,0-.39.27.4.4,0,0,0-.13.26A.19.19,0,0,0,9.63,66Z"/><path class="cls-42" d="M9.58,69.29l.39.09a.4.4,0,0,1,.16.28A.34.34,0,0,1,10,70l-.55.27q-.42.21-.24.3h0s.21.06.63.08l.41,0,.25,0,.25,0c.1,0,.15.15.15.35a.37.37,0,0,1-.06.21.18.18,0,0,1-.17.11l-1-.11a5.79,5.79,0,0,1-1.1-.15c-.28,0-.43-.17-.43-.4a.38.38,0,0,1,.16-.31l.94-.65a3.58,3.58,0,0,1-1-.26.33.33,0,0,1-.1-.28.21.21,0,0,1,.07-.19l1-.74h.05c.12,0,.22.1.31.29a.72.72,0,0,1-.1.28l-.33.29Z"/><path class="cls-42" d="M15.28,65.54c-.23.21-.34.38-.34.5l0,0s0,.05.16.05a1.1,1.1,0,0,0,.53-.05l.18,0c.31,0,.46.13.46.37s-.1.35-.3.37a2.65,2.65,0,0,1-.57,0q-1.29,0-1.29-.78a.63.63,0,0,1,0-.16,2,2,0,0,1,.64-.92l.32-.28a1.12,1.12,0,0,1,.38-.22.19.19,0,0,1,.12,0,.47.47,0,0,1,.38.46c0,.1-.08.2-.25.29Z"/><path class="cls-42" d="M15.76,68.18a1,1,0,0,1,.6.19.67.67,0,0,1,.28.55.72.72,0,0,1-.11.37,2.11,2.11,0,0,1-1.2.77,5.57,5.57,0,0,1-1.6.2A1.7,1.7,0,0,0,13,71a.32.32,0,0,0,0,.14c0,.2.13.34.4.4a2.89,2.89,0,0,0,.63.06,3.22,3.22,0,0,0,.71-.06l.51-.09q.27,0,.27.36t-.15.27a3.9,3.9,0,0,1-1.34.2l-.32,0c-.72-.07-1.17-.29-1.33-.65a.7.7,0,0,1-.11-.48A1.83,1.83,0,0,1,13,70a.52.52,0,0,1-.21-.45,1.19,1.19,0,0,1,.14-.52,1.07,1.07,0,0,1,.34-.43,1.17,1.17,0,0,1,.55-.25,1.26,1.26,0,0,1,.48,0l.43.18A1.94,1.94,0,0,1,15.76,68.18Zm-1.66.71a.64.64,0,0,0-.39.15.54.54,0,0,0-.21.35c0,.08,0,.12.13.12a.63.63,0,0,0,.21,0,.59.59,0,0,0,.41-.4Q14.31,68.89,14.1,68.89Zm.77.6s0,0,.06,0a1.26,1.26,0,0,0,.53-.18q.36-.21.36-.36s0,0-.06-.09a.93.93,0,0,0-.58.16c-.22.14-.33.27-.33.38A.14.14,0,0,0,14.87,69.49Z"/><path class="cls-42" d="M19.77,73a.29.29,0,0,1,.23.13.43.43,0,0,1,.1.27.39.39,0,0,1-.14.23,6.27,6.27,0,0,1-.72.44L18,74.76a2.23,2.23,0,0,1-.5.24.41.41,0,0,1-.16,0,.18.18,0,0,1-.17-.09,1.45,1.45,0,0,1-.11-.29c0-.18.11-.29.31-.34a24.36,24.36,0,0,0,2.27-1.26A.33.33,0,0,1,19.77,73Z"/><path class="cls-42" d="M21.1,69.05c0-.08-.12-.12-.35-.12l-.66.07-.21,0-.21,0a.21.21,0,0,1-.18-.07.5.5,0,0,1-.11-.3.63.63,0,0,1,.05-.22q0-.24.9-.3a5.14,5.14,0,0,1,.82.06c.44.06.7.17.79.34A.71.71,0,0,1,22,69a.76.76,0,0,1-.08.23,2,2,0,0,1-.3.34,6.09,6.09,0,0,1-.57.43,13.76,13.76,0,0,1-1.68.88c-.38.17-.74.33-1.11.47a.43.43,0,0,1-.44,0,.93.93,0,0,1-.29-.61c0-.18.1-.26.29-.26a1,1,0,0,1,.22,0l.21,0a.73.73,0,0,0,.22,0l.48-.17a9.58,9.58,0,0,0,1.05-.5,5.32,5.32,0,0,0,1.08-.7A.13.13,0,0,0,21.1,69.05Z"/><path class="cls-42" d="M25,73a.31.31,0,0,1,.24.13.43.43,0,0,1,.1.27.46.46,0,0,1-.14.23,6.27,6.27,0,0,1-.72.44l-1.27.69a2.45,2.45,0,0,1-.51.24.4.4,0,0,1-.15,0,.17.17,0,0,1-.17-.09,1.45,1.45,0,0,1-.11-.29c0-.18.1-.29.31-.34a25.71,25.71,0,0,0,2.27-1.26A.3.3,0,0,1,25,73Z"/><path class="cls-42" d="M24.56,69.83l-.45,0c-.2,0-.29-.11-.29-.33s.12-.31.36-.37l.44-.12a2.24,2.24,0,0,0,.95-.65.37.37,0,0,1,.34-.17.5.5,0,0,1,.18.09.37.37,0,0,1,.19.36.92.92,0,0,1-.17.2l-.26.19L27,68.93a.22.22,0,0,1,.2.25.34.34,0,0,1-.07.24l-.25.17c-1,.61-1.82,1.13-2.54,1.55l-1.69,1-.64.34a.23.23,0,0,1-.14,0c-.13,0-.24-.09-.34-.28a.92.92,0,0,1-.13-.46c0-.15.06-.22.19-.22h.21l.21,0a1.07,1.07,0,0,0,.41-.08s0,0,0,0h0l.36-.19c.79-.43,1.67-1,2.62-1.58Z"/><path class="cls-42" d="M34.71,72.75a.29.29,0,0,1,.23.13.43.43,0,0,1,.1.27.46.46,0,0,1-.14.23,6.27,6.27,0,0,1-.72.44l-1.27.69a2.46,2.46,0,0,1-.5.24l-.16,0a.17.17,0,0,1-.17-.09A1.45,1.45,0,0,1,32,74.4a.33.33,0,0,1,.31-.33,25.85,25.85,0,0,0,2.27-1.27A.33.33,0,0,1,34.71,72.75Zm.52.82a.33.33,0,0,1,.24.13.5.5,0,0,1,.1.27.46.46,0,0,1-.14.23,6.77,6.77,0,0,1-.73.44l-1.26.69a2.45,2.45,0,0,1-.51.24.4.4,0,0,1-.15,0,.18.18,0,0,1-.18-.09,1.16,1.16,0,0,1-.1-.29.33.33,0,0,1,.3-.34,24.36,24.36,0,0,0,2.27-1.26A.37.37,0,0,1,35.23,73.57Z"/><path class="cls-42" d="M34.24,70.32a10,10,0,0,1-1,.69,3.48,3.48,0,0,1-.89.44h-.07a.51.51,0,0,1-.42-.27.89.89,0,0,1-.15-.47.2.2,0,0,1,.21-.23h.16l.24,0a1.25,1.25,0,0,0,.29,0,5,5,0,0,0,.78-.41,5.16,5.16,0,0,0,1.09-.85.36.36,0,0,1-.15-.28.53.53,0,0,1,.27-.44.85.85,0,0,1,.5-.19.36.36,0,0,1,.41.37c.06,0,.2,0,.44-.2a4.21,4.21,0,0,1,.38-.28l.14,0,.13,0a.45.45,0,0,1,.19.24.48.48,0,0,1-.07.29.66.66,0,0,0-.09.18.07.07,0,0,0,.07.06c.18,0,.45-.17.81-.55a.63.63,0,0,1,.33-.17c.09,0,.2.09.31.27a.3.3,0,0,1,0,.32,1.92,1.92,0,0,1-1,.81,1.54,1.54,0,0,1-.55.14c-.32,0-.51-.12-.56-.4-.13,0-.37,0-.71,0C35.24,69.5,34.87,69.8,34.24,70.32Z"/><path class="cls-42" d="M41.73,65.54c-.23.21-.34.38-.34.5s0,0,0,0,0,.05.15.05a1.13,1.13,0,0,0,.54-.05l.17,0c.32,0,.47.13.47.37s-.1.35-.3.37a2.65,2.65,0,0,1-.57,0c-.86,0-1.3-.26-1.3-.78a.35.35,0,0,1,0-.16,1.91,1.91,0,0,1,.64-.92l.32-.28a1.12,1.12,0,0,1,.38-.22.17.17,0,0,1,.11,0,.47.47,0,0,1,.39.46c0,.1-.09.2-.25.29A5.59,5.59,0,0,0,41.73,65.54Z"/><path class="cls-42" d="M39.82,70.18c0-.18.12-.3.35-.38a4.79,4.79,0,0,0,.65-.25,2.44,2.44,0,0,1-.33-.17c-.17-.11-.27-.19-.29-.26a.33.33,0,0,1,0-.24.23.23,0,0,1,.19-.15,1.81,1.81,0,0,0,.94-.34.71.71,0,0,1,.37-.14h0a.4.4,0,0,1,.19.22s0,.1,0,.23l0,0a.46.46,0,0,1-.16.15l-.14.11-.18.11c-.08,0-.12.08-.12.1s0,0,.07,0c.26.07.39.19.39.34a.39.39,0,0,1-.05.14,1.11,1.11,0,0,1-.17.16,2.84,2.84,0,0,1-.45.3c-.09.07-.14.1-.14.08a1.34,1.34,0,0,0,.13.15l.09.14a.13.13,0,0,1,0,.06c0,.13-.12.27-.37.42a18.9,18.9,0,0,1-3.33,1.8c-.11,0-.23-.08-.35-.26a1,1,0,0,1-.17-.44c0-.2.06-.31.26-.31l.19,0h.31a1,1,0,0,0,.3,0c.38-.17.68-.32.9-.44.54-.3,1-.55,1.28-.76C40,70.44,39.82,70.3,39.82,70.18Zm.55,1.42a.43.43,0,0,1,.34-.15c.3,0,.44.15.44.45a.45.45,0,0,1-.14.33.43.43,0,0,1-.33.15.39.39,0,0,1-.45-.43A.5.5,0,0,1,40.37,71.6Z"/><path class="cls-42" d="M47.36,64.51a.86.86,0,0,1,.78.51,1.25,1.25,0,0,1,0,.35,1.23,1.23,0,0,1-.21.73,2.3,2.3,0,0,1-1.75.84,1,1,0,0,1-.81-.37,1.26,1.26,0,0,1-.12-.51,1.19,1.19,0,0,1,.37-.8A2.19,2.19,0,0,1,47.36,64.51ZM46.1,66a.46.46,0,0,0,.26.15h.33a1.54,1.54,0,0,0,.72-.5.25.25,0,0,0,0-.12c0-.19-.15-.27-.45-.26a1.39,1.39,0,0,0-.38.14,1.28,1.28,0,0,0-.38.27.4.4,0,0,0-.13.26A.17.17,0,0,0,46.1,66Z"/><path class="cls-42" d="M47,69.05q0-.12-.36-.12L46,69l-.21,0-.21,0a.21.21,0,0,1-.18-.07.5.5,0,0,1-.11-.3.63.63,0,0,1,.05-.22q0-.24.9-.3a5.14,5.14,0,0,1,.82.06c.44.06.7.17.79.34a.71.71,0,0,1,.07.44.76.76,0,0,1-.08.23,2.59,2.59,0,0,1-.3.34c-.21.17-.4.31-.57.43a13.28,13.28,0,0,1-1.69.88c-.37.17-.73.33-1.1.47a.43.43,0,0,1-.44,0,.93.93,0,0,1-.29-.61c0-.18.1-.26.29-.26a1,1,0,0,1,.22,0l.21,0a.78.78,0,0,0,.22,0l.47-.17a8.86,8.86,0,0,0,1.06-.5,5.32,5.32,0,0,0,1.08-.7A.13.13,0,0,0,47,69.05Z"/><path class="cls-42" d="M53.23,64.57c.24,0,.36.16.37.35s-.28.39-.85.56a.93.93,0,0,0-.57.44.61.61,0,0,0,.37.17,4.85,4.85,0,0,1,.62.09.29.29,0,0,1,.16.37c0,.25-.22.37-.52.37a2.5,2.5,0,0,1-.89-.2.8.8,0,0,1-.51-.47,2.9,2.9,0,0,1-1.61.6.67.67,0,0,1-.37,0c-.15-.06-.23-.15-.23-.27a.38.38,0,0,1,.31-.41,3.15,3.15,0,0,0,.6-.07,1.38,1.38,0,0,0,.74-.35c0-.11-.17-.21-.43-.28a4.3,4.3,0,0,0-.51-.07.28.28,0,0,1-.23-.28.48.48,0,0,1,.56-.48,4.51,4.51,0,0,1,.53.09,1.38,1.38,0,0,1,.84.66,1.92,1.92,0,0,1,.57-.5,3.09,3.09,0,0,1,.9-.28A.4.4,0,0,1,53.23,64.57Z"/><path class="cls-42" d="M52.32,68.38l.18-.07c.07,0,.15,0,.25.14a.45.45,0,0,1,.09.25c0,.07-.05.15-.17.25a10.2,10.2,0,0,1-1.48,1,6,6,0,0,1-1.76.78.48.48,0,0,1-.3-.12.38.38,0,0,1-.14-.28c0-.06.11-.2.33-.44a1.75,1.75,0,0,0,.28-.68l0-.49c0-.23,0-.36.16-.41a.6.6,0,0,1,.27-.05c.19,0,.29.18.32.45s0,.28,0,.31a1.24,1.24,0,0,1-.2.71A15.35,15.35,0,0,0,52.32,68.38Z"/></svg>